<mxfile host="app.diagrams.net" modified="2022-02-08T23:36:05.601Z" agent="5.0 (Macintosh; Intel Mac OS X 10_15_7) AppleWebKit/605.1.15 (KHTML, like Gecko) Version/15.1 Safari/605.1.15" etag="gl89feARaWIXKvD5iy9S" version="16.5.4" type="github">
  <diagram id="ZBSky5QGZU4ZRfo___sx" name="Page-1">
    <mxGraphModel dx="1963" dy="799" grid="1" gridSize="10" guides="1" tooltips="1" connect="1" arrows="1" fold="1" page="1" pageScale="1" pageWidth="850" pageHeight="1100" math="0" shadow="0">
      <root>
        <mxCell id="0" />
        <mxCell id="1" parent="0" />
        <mxCell id="QPjuQyHc1zBI7uoP9U3m-1" value="IF/ID" style="rounded=0;whiteSpace=wrap;html=1;" vertex="1" parent="1">
          <mxGeometry x="-50" y="150" width="50" height="460" as="geometry" />
        </mxCell>
        <mxCell id="QPjuQyHc1zBI7uoP9U3m-2" value="ID/EX" style="rounded=0;whiteSpace=wrap;html=1;" vertex="1" parent="1">
          <mxGeometry x="330" y="150" width="50" height="460" as="geometry" />
        </mxCell>
        <mxCell id="QPjuQyHc1zBI7uoP9U3m-3" value="EX/MEM" style="rounded=0;whiteSpace=wrap;html=1;" vertex="1" parent="1">
          <mxGeometry x="520" y="150" width="50" height="460" as="geometry" />
        </mxCell>
        <mxCell id="QPjuQyHc1zBI7uoP9U3m-4" value="MEM/Wb" style="rounded=0;whiteSpace=wrap;html=1;" vertex="1" parent="1">
          <mxGeometry x="712" y="152" width="50" height="448" as="geometry" />
        </mxCell>
        <mxCell id="QPjuQyHc1zBI7uoP9U3m-7" value="" style="endArrow=classic;html=1;rounded=0;exitX=0.98;exitY=0.139;exitDx=0;exitDy=0;exitPerimeter=0;entryX=0.9;entryY=0.95;entryDx=0;entryDy=0;entryPerimeter=0;" edge="1" parent="1" source="QPjuQyHc1zBI7uoP9U3m-1" target="QPjuQyHc1zBI7uoP9U3m-8">
          <mxGeometry width="50" height="50" relative="1" as="geometry">
            <mxPoint x="320" y="360" as="sourcePoint" />
            <mxPoint x="70" y="209" as="targetPoint" />
          </mxGeometry>
        </mxCell>
        <mxCell id="QPjuQyHc1zBI7uoP9U3m-8" value="instr" style="text;html=1;align=center;verticalAlign=middle;resizable=0;points=[];autosize=1;strokeColor=none;fillColor=none;" vertex="1" parent="1">
          <mxGeometry x="20" y="190" width="40" height="20" as="geometry" />
        </mxCell>
        <mxCell id="QPjuQyHc1zBI7uoP9U3m-15" value="&lt;b&gt;Control Unit&lt;/b&gt;" style="rounded=0;whiteSpace=wrap;html=1;fillColor=#d5e8d4;strokeColor=#82b366;strokeWidth=4;" vertex="1" parent="1">
          <mxGeometry x="60" y="150" width="120" height="380" as="geometry" />
        </mxCell>
        <mxCell id="QPjuQyHc1zBI7uoP9U3m-16" value="" style="endArrow=classic;html=1;rounded=0;strokeColor=#4D9900;strokeWidth=2;" edge="1" parent="1">
          <mxGeometry width="50" height="50" relative="1" as="geometry">
            <mxPoint x="180" y="219.57999999999993" as="sourcePoint" />
            <mxPoint x="220" y="219.57999999999993" as="targetPoint" />
          </mxGeometry>
        </mxCell>
        <mxCell id="QPjuQyHc1zBI7uoP9U3m-17" value="" style="endArrow=classic;html=1;rounded=0;strokeColor=#4D9900;strokeWidth=2;" edge="1" parent="1">
          <mxGeometry width="50" height="50" relative="1" as="geometry">
            <mxPoint x="180" y="249" as="sourcePoint" />
            <mxPoint x="220" y="249" as="targetPoint" />
            <Array as="points">
              <mxPoint x="190" y="249" />
            </Array>
          </mxGeometry>
        </mxCell>
        <mxCell id="QPjuQyHc1zBI7uoP9U3m-18" value="" style="endArrow=classic;html=1;rounded=0;strokeColor=#4D9900;strokeWidth=2;" edge="1" parent="1">
          <mxGeometry width="50" height="50" relative="1" as="geometry">
            <mxPoint x="180" y="274" as="sourcePoint" />
            <mxPoint x="220" y="274" as="targetPoint" />
          </mxGeometry>
        </mxCell>
        <mxCell id="QPjuQyHc1zBI7uoP9U3m-19" value="" style="endArrow=classic;html=1;rounded=0;strokeColor=#4D9900;strokeWidth=2;" edge="1" parent="1">
          <mxGeometry width="50" height="50" relative="1" as="geometry">
            <mxPoint x="180" y="304" as="sourcePoint" />
            <mxPoint x="220" y="304" as="targetPoint" />
          </mxGeometry>
        </mxCell>
        <mxCell id="QPjuQyHc1zBI7uoP9U3m-20" value="" style="endArrow=classic;html=1;rounded=0;strokeColor=#4D9900;strokeWidth=2;" edge="1" parent="1">
          <mxGeometry width="50" height="50" relative="1" as="geometry">
            <mxPoint x="180" y="330" as="sourcePoint" />
            <mxPoint x="220" y="330" as="targetPoint" />
          </mxGeometry>
        </mxCell>
        <mxCell id="QPjuQyHc1zBI7uoP9U3m-21" value="" style="endArrow=classic;html=1;rounded=0;strokeColor=#4D9900;strokeWidth=2;" edge="1" parent="1">
          <mxGeometry width="50" height="50" relative="1" as="geometry">
            <mxPoint x="180" y="360" as="sourcePoint" />
            <mxPoint x="220" y="360" as="targetPoint" />
          </mxGeometry>
        </mxCell>
        <mxCell id="QPjuQyHc1zBI7uoP9U3m-22" value="" style="endArrow=classic;html=1;rounded=0;strokeColor=#4D9900;strokeWidth=2;" edge="1" parent="1">
          <mxGeometry width="50" height="50" relative="1" as="geometry">
            <mxPoint x="180" y="390" as="sourcePoint" />
            <mxPoint x="220" y="390" as="targetPoint" />
          </mxGeometry>
        </mxCell>
        <mxCell id="QPjuQyHc1zBI7uoP9U3m-23" value="RegWr" style="text;html=1;align=center;verticalAlign=middle;resizable=0;points=[];autosize=1;strokeColor=#d79b00;fillColor=#ffe6cc;" vertex="1" parent="1">
          <mxGeometry x="224" y="270" width="50" height="20" as="geometry" />
        </mxCell>
        <mxCell id="QPjuQyHc1zBI7uoP9U3m-24" value="RegDst" style="text;html=1;align=center;verticalAlign=middle;resizable=0;points=[];autosize=1;strokeColor=#b85450;fillColor=#f8cecc;" vertex="1" parent="1">
          <mxGeometry x="222" y="155" width="60" height="20" as="geometry" />
        </mxCell>
        <mxCell id="QPjuQyHc1zBI7uoP9U3m-25" value="ExtOp" style="text;html=1;align=center;verticalAlign=middle;resizable=0;points=[];autosize=1;strokeColor=#b85450;fillColor=#f8cecc;" vertex="1" parent="1">
          <mxGeometry x="225" y="188" width="50" height="20" as="geometry" />
        </mxCell>
        <mxCell id="QPjuQyHc1zBI7uoP9U3m-26" value="ALUSrc" style="text;html=1;align=center;verticalAlign=middle;resizable=0;points=[];autosize=1;strokeColor=#b85450;fillColor=#f8cecc;" vertex="1" parent="1">
          <mxGeometry x="225" y="214" width="60" height="20" as="geometry" />
        </mxCell>
        <mxCell id="QPjuQyHc1zBI7uoP9U3m-27" value="ALUOp" style="text;html=1;align=center;verticalAlign=middle;resizable=0;points=[];autosize=1;strokeColor=#b85450;fillColor=#f8cecc;" vertex="1" parent="1">
          <mxGeometry x="225" y="240" width="50" height="20" as="geometry" />
        </mxCell>
        <mxCell id="QPjuQyHc1zBI7uoP9U3m-28" value="MemWr" style="text;html=1;align=center;verticalAlign=middle;resizable=0;points=[];autosize=1;strokeColor=#9673a6;fillColor=#e1d5e7;" vertex="1" parent="1">
          <mxGeometry x="225" y="410" width="60" height="20" as="geometry" />
        </mxCell>
        <mxCell id="QPjuQyHc1zBI7uoP9U3m-29" value="MemtoReg" style="text;html=1;align=center;verticalAlign=middle;resizable=0;points=[];autosize=1;strokeColor=#9673a6;fillColor=#e1d5e7;" vertex="1" parent="1">
          <mxGeometry x="220" y="440" width="70" height="20" as="geometry" />
        </mxCell>
        <mxCell id="QPjuQyHc1zBI7uoP9U3m-30" value="" style="endArrow=classic;html=1;rounded=0;strokeColor=#4D9900;strokeWidth=2;" edge="1" parent="1">
          <mxGeometry width="50" height="50" relative="1" as="geometry">
            <mxPoint x="180" y="420.0000000000002" as="sourcePoint" />
            <mxPoint x="220" y="420.0000000000002" as="targetPoint" />
          </mxGeometry>
        </mxCell>
        <mxCell id="QPjuQyHc1zBI7uoP9U3m-31" value="Branch" style="text;html=1;align=center;verticalAlign=middle;resizable=0;points=[];autosize=1;strokeColor=#d79b00;fillColor=#ffe6cc;" vertex="1" parent="1">
          <mxGeometry x="224" y="360" width="50" height="20" as="geometry" />
        </mxCell>
        <mxCell id="QPjuQyHc1zBI7uoP9U3m-32" value="" style="endArrow=classic;html=1;rounded=0;strokeColor=#4D9900;strokeWidth=2;exitX=1;exitY=0.784;exitDx=0;exitDy=0;exitPerimeter=0;" edge="1" parent="1" source="QPjuQyHc1zBI7uoP9U3m-15">
          <mxGeometry width="50" height="50" relative="1" as="geometry">
            <mxPoint x="185" y="448" as="sourcePoint" />
            <mxPoint x="220" y="448" as="targetPoint" />
          </mxGeometry>
        </mxCell>
        <mxCell id="QPjuQyHc1zBI7uoP9U3m-33" value="Jump" style="text;html=1;align=center;verticalAlign=middle;resizable=0;points=[];autosize=1;strokeColor=#d79b00;fillColor=#ffe6cc;" vertex="1" parent="1">
          <mxGeometry x="229" y="382.99999999999994" width="40" height="20" as="geometry" />
        </mxCell>
        <mxCell id="QPjuQyHc1zBI7uoP9U3m-34" value="Halt" style="text;html=1;align=center;verticalAlign=middle;resizable=0;points=[];autosize=1;strokeColor=none;fillColor=none;fontColor=#000000;" vertex="1" parent="1">
          <mxGeometry x="224" y="470" width="40" height="20" as="geometry" />
        </mxCell>
        <mxCell id="QPjuQyHc1zBI7uoP9U3m-35" value="" style="endArrow=classic;html=1;rounded=0;strokeColor=#4D9900;strokeWidth=2;exitX=1;exitY=0.784;exitDx=0;exitDy=0;exitPerimeter=0;" edge="1" parent="1">
          <mxGeometry width="50" height="50" relative="1" as="geometry">
            <mxPoint x="180" y="480.9200000000001" as="sourcePoint" />
            <mxPoint x="220" y="481" as="targetPoint" />
          </mxGeometry>
        </mxCell>
        <mxCell id="QPjuQyHc1zBI7uoP9U3m-36" value="" style="endArrow=classic;html=1;rounded=0;strokeColor=#4D9900;strokeWidth=2;" edge="1" parent="1">
          <mxGeometry width="50" height="50" relative="1" as="geometry">
            <mxPoint x="182" y="195.57999999999993" as="sourcePoint" />
            <mxPoint x="222" y="195.57999999999993" as="targetPoint" />
          </mxGeometry>
        </mxCell>
        <mxCell id="QPjuQyHc1zBI7uoP9U3m-37" value="MemRead" style="text;html=1;align=center;verticalAlign=middle;resizable=0;points=[];autosize=1;strokeColor=#d79b00;fillColor=#ffe6cc;" vertex="1" parent="1">
          <mxGeometry x="220" y="330" width="70" height="20" as="geometry" />
        </mxCell>
        <mxCell id="QPjuQyHc1zBI7uoP9U3m-42" value="MemWrite" style="text;html=1;align=center;verticalAlign=middle;resizable=0;points=[];autosize=1;strokeColor=#d79b00;fillColor=#ffe6cc;" vertex="1" parent="1">
          <mxGeometry x="220" y="300" width="70" height="20" as="geometry" />
        </mxCell>
        <mxCell id="QPjuQyHc1zBI7uoP9U3m-43" value="" style="endArrow=classic;html=1;rounded=0;strokeColor=#4D9900;strokeWidth=2;" edge="1" parent="1">
          <mxGeometry width="50" height="50" relative="1" as="geometry">
            <mxPoint x="181" y="164.57999999999993" as="sourcePoint" />
            <mxPoint x="221" y="164.57999999999993" as="targetPoint" />
          </mxGeometry>
        </mxCell>
        <mxCell id="QPjuQyHc1zBI7uoP9U3m-46" value="RegDst" style="text;html=1;align=center;verticalAlign=middle;resizable=0;points=[];autosize=1;strokeColor=#b85450;fillColor=#f8cecc;" vertex="1" parent="1">
          <mxGeometry x="425" y="180" width="60" height="20" as="geometry" />
        </mxCell>
        <mxCell id="QPjuQyHc1zBI7uoP9U3m-47" value="ExtOp" style="text;html=1;align=center;verticalAlign=middle;resizable=0;points=[];autosize=1;strokeColor=#b85450;fillColor=#f8cecc;" vertex="1" parent="1">
          <mxGeometry x="425" y="210" width="50" height="20" as="geometry" />
        </mxCell>
        <mxCell id="QPjuQyHc1zBI7uoP9U3m-48" value="ALUSrc" style="text;html=1;align=center;verticalAlign=middle;resizable=0;points=[];autosize=1;strokeColor=#b85450;fillColor=#f8cecc;" vertex="1" parent="1">
          <mxGeometry x="425" y="234" width="60" height="20" as="geometry" />
        </mxCell>
        <mxCell id="QPjuQyHc1zBI7uoP9U3m-49" value="ALUOp" style="text;html=1;align=center;verticalAlign=middle;resizable=0;points=[];autosize=1;strokeColor=#b85450;fillColor=#f8cecc;" vertex="1" parent="1">
          <mxGeometry x="425" y="260" width="50" height="20" as="geometry" />
        </mxCell>
        <mxCell id="QPjuQyHc1zBI7uoP9U3m-50" value="" style="endArrow=classic;html=1;rounded=0;strokeColor=#4D9900;strokeWidth=2;" edge="1" parent="1">
          <mxGeometry width="50" height="50" relative="1" as="geometry">
            <mxPoint x="380" y="244.99999999999991" as="sourcePoint" />
            <mxPoint x="420" y="244.99999999999991" as="targetPoint" />
          </mxGeometry>
        </mxCell>
        <mxCell id="QPjuQyHc1zBI7uoP9U3m-51" value="" style="endArrow=classic;html=1;rounded=0;strokeColor=#4D9900;strokeWidth=2;" edge="1" parent="1">
          <mxGeometry width="50" height="50" relative="1" as="geometry">
            <mxPoint x="380" y="274.42" as="sourcePoint" />
            <mxPoint x="420" y="274.42" as="targetPoint" />
            <Array as="points">
              <mxPoint x="390" y="274.42" />
            </Array>
          </mxGeometry>
        </mxCell>
        <mxCell id="QPjuQyHc1zBI7uoP9U3m-52" value="" style="endArrow=classic;html=1;rounded=0;strokeColor=#4D9900;strokeWidth=2;" edge="1" parent="1">
          <mxGeometry width="50" height="50" relative="1" as="geometry">
            <mxPoint x="382" y="220.99999999999991" as="sourcePoint" />
            <mxPoint x="422" y="220.99999999999991" as="targetPoint" />
          </mxGeometry>
        </mxCell>
        <mxCell id="QPjuQyHc1zBI7uoP9U3m-53" value="" style="endArrow=classic;html=1;rounded=0;strokeColor=#4D9900;strokeWidth=2;" edge="1" parent="1">
          <mxGeometry width="50" height="50" relative="1" as="geometry">
            <mxPoint x="381" y="189.99999999999991" as="sourcePoint" />
            <mxPoint x="421" y="189.99999999999991" as="targetPoint" />
          </mxGeometry>
        </mxCell>
        <mxCell id="QPjuQyHc1zBI7uoP9U3m-56" value="" style="endArrow=classic;html=1;rounded=0;strokeColor=#4D9900;strokeWidth=2;" edge="1" parent="1">
          <mxGeometry width="50" height="50" relative="1" as="geometry">
            <mxPoint x="381" y="294" as="sourcePoint" />
            <mxPoint x="421" y="294" as="targetPoint" />
            <Array as="points">
              <mxPoint x="401" y="294" />
            </Array>
          </mxGeometry>
        </mxCell>
        <mxCell id="QPjuQyHc1zBI7uoP9U3m-57" value="" style="endArrow=classic;html=1;rounded=0;strokeColor=#4D9900;strokeWidth=2;" edge="1" parent="1">
          <mxGeometry width="50" height="50" relative="1" as="geometry">
            <mxPoint x="381" y="324" as="sourcePoint" />
            <mxPoint x="421" y="324" as="targetPoint" />
          </mxGeometry>
        </mxCell>
        <mxCell id="QPjuQyHc1zBI7uoP9U3m-58" value="" style="endArrow=classic;html=1;rounded=0;strokeColor=#4D9900;strokeWidth=2;" edge="1" parent="1">
          <mxGeometry width="50" height="50" relative="1" as="geometry">
            <mxPoint x="381" y="350" as="sourcePoint" />
            <mxPoint x="421" y="350" as="targetPoint" />
          </mxGeometry>
        </mxCell>
        <mxCell id="QPjuQyHc1zBI7uoP9U3m-59" value="" style="endArrow=classic;html=1;rounded=0;strokeColor=#4D9900;strokeWidth=2;" edge="1" parent="1">
          <mxGeometry width="50" height="50" relative="1" as="geometry">
            <mxPoint x="381" y="380" as="sourcePoint" />
            <mxPoint x="421" y="380" as="targetPoint" />
          </mxGeometry>
        </mxCell>
        <mxCell id="QPjuQyHc1zBI7uoP9U3m-60" value="" style="endArrow=classic;html=1;rounded=0;strokeColor=#4D9900;strokeWidth=2;" edge="1" parent="1">
          <mxGeometry width="50" height="50" relative="1" as="geometry">
            <mxPoint x="381" y="410" as="sourcePoint" />
            <mxPoint x="421" y="410" as="targetPoint" />
          </mxGeometry>
        </mxCell>
        <mxCell id="QPjuQyHc1zBI7uoP9U3m-61" value="RegWr" style="text;html=1;align=center;verticalAlign=middle;resizable=0;points=[];autosize=1;strokeColor=#d79b00;fillColor=#ffe6cc;" vertex="1" parent="1">
          <mxGeometry x="424" y="290" width="50" height="20" as="geometry" />
        </mxCell>
        <mxCell id="QPjuQyHc1zBI7uoP9U3m-62" value="Branch" style="text;html=1;align=center;verticalAlign=middle;resizable=0;points=[];autosize=1;strokeColor=#d79b00;fillColor=#ffe6cc;" vertex="1" parent="1">
          <mxGeometry x="424" y="380" width="50" height="20" as="geometry" />
        </mxCell>
        <mxCell id="QPjuQyHc1zBI7uoP9U3m-63" value="Jump" style="text;html=1;align=center;verticalAlign=middle;resizable=0;points=[];autosize=1;strokeColor=#d79b00;fillColor=#ffe6cc;" vertex="1" parent="1">
          <mxGeometry x="429" y="399.99999999999994" width="40" height="20" as="geometry" />
        </mxCell>
        <mxCell id="QPjuQyHc1zBI7uoP9U3m-64" value="MemRead" style="text;html=1;align=center;verticalAlign=middle;resizable=0;points=[];autosize=1;strokeColor=#d79b00;fillColor=#ffe6cc;" vertex="1" parent="1">
          <mxGeometry x="420" y="350" width="70" height="20" as="geometry" />
        </mxCell>
        <mxCell id="QPjuQyHc1zBI7uoP9U3m-65" value="MemWrite" style="text;html=1;align=center;verticalAlign=middle;resizable=0;points=[];autosize=1;strokeColor=#d79b00;fillColor=#ffe6cc;" vertex="1" parent="1">
          <mxGeometry x="420" y="320" width="70" height="20" as="geometry" />
        </mxCell>
        <mxCell id="QPjuQyHc1zBI7uoP9U3m-66" value="" style="endArrow=classic;html=1;rounded=0;strokeColor=#4D9900;strokeWidth=2;" edge="1" parent="1">
          <mxGeometry width="50" height="50" relative="1" as="geometry">
            <mxPoint x="481" y="300" as="sourcePoint" />
            <mxPoint x="521" y="300" as="targetPoint" />
            <Array as="points">
              <mxPoint x="501" y="300" />
            </Array>
          </mxGeometry>
        </mxCell>
        <mxCell id="QPjuQyHc1zBI7uoP9U3m-67" value="" style="endArrow=classic;html=1;rounded=0;strokeColor=#4D9900;strokeWidth=2;" edge="1" parent="1">
          <mxGeometry width="50" height="50" relative="1" as="geometry">
            <mxPoint x="481" y="330" as="sourcePoint" />
            <mxPoint x="521" y="330" as="targetPoint" />
          </mxGeometry>
        </mxCell>
        <mxCell id="QPjuQyHc1zBI7uoP9U3m-68" value="" style="endArrow=classic;html=1;rounded=0;strokeColor=#4D9900;strokeWidth=2;" edge="1" parent="1">
          <mxGeometry width="50" height="50" relative="1" as="geometry">
            <mxPoint x="481" y="356" as="sourcePoint" />
            <mxPoint x="521" y="356" as="targetPoint" />
          </mxGeometry>
        </mxCell>
        <mxCell id="QPjuQyHc1zBI7uoP9U3m-69" value="" style="endArrow=classic;html=1;rounded=0;strokeColor=#4D9900;strokeWidth=2;" edge="1" parent="1">
          <mxGeometry width="50" height="50" relative="1" as="geometry">
            <mxPoint x="481" y="386" as="sourcePoint" />
            <mxPoint x="521" y="386" as="targetPoint" />
          </mxGeometry>
        </mxCell>
        <mxCell id="QPjuQyHc1zBI7uoP9U3m-70" value="" style="endArrow=classic;html=1;rounded=0;strokeColor=#4D9900;strokeWidth=2;" edge="1" parent="1">
          <mxGeometry width="50" height="50" relative="1" as="geometry">
            <mxPoint x="481" y="416" as="sourcePoint" />
            <mxPoint x="521" y="416" as="targetPoint" />
          </mxGeometry>
        </mxCell>
        <mxCell id="QPjuQyHc1zBI7uoP9U3m-71" value="MemWr" style="text;html=1;align=center;verticalAlign=middle;resizable=0;points=[];autosize=1;strokeColor=#9673a6;fillColor=#e1d5e7;" vertex="1" parent="1">
          <mxGeometry x="420" y="425" width="60" height="20" as="geometry" />
        </mxCell>
        <mxCell id="QPjuQyHc1zBI7uoP9U3m-72" value="MemtoReg" style="text;html=1;align=center;verticalAlign=middle;resizable=0;points=[];autosize=1;strokeColor=#9673a6;fillColor=#e1d5e7;" vertex="1" parent="1">
          <mxGeometry x="415" y="455" width="70" height="20" as="geometry" />
        </mxCell>
        <mxCell id="QPjuQyHc1zBI7uoP9U3m-73" value="" style="endArrow=classic;html=1;rounded=0;strokeColor=#4D9900;strokeWidth=2;" edge="1" parent="1">
          <mxGeometry width="50" height="50" relative="1" as="geometry">
            <mxPoint x="375" y="435.0000000000002" as="sourcePoint" />
            <mxPoint x="415" y="435.0000000000002" as="targetPoint" />
          </mxGeometry>
        </mxCell>
        <mxCell id="QPjuQyHc1zBI7uoP9U3m-74" value="" style="endArrow=classic;html=1;rounded=0;strokeColor=#4D9900;strokeWidth=2;exitX=1;exitY=0.784;exitDx=0;exitDy=0;exitPerimeter=0;" edge="1" parent="1">
          <mxGeometry width="50" height="50" relative="1" as="geometry">
            <mxPoint x="375" y="462.9200000000001" as="sourcePoint" />
            <mxPoint x="415" y="463" as="targetPoint" />
          </mxGeometry>
        </mxCell>
        <mxCell id="QPjuQyHc1zBI7uoP9U3m-78" value="" style="endArrow=classic;html=1;rounded=0;strokeColor=#4D9900;strokeWidth=2;" edge="1" parent="1">
          <mxGeometry width="50" height="50" relative="1" as="geometry">
            <mxPoint x="487" y="469" as="sourcePoint" />
            <mxPoint x="517" y="469" as="targetPoint" />
          </mxGeometry>
        </mxCell>
        <mxCell id="QPjuQyHc1zBI7uoP9U3m-79" value="" style="endArrow=classic;html=1;rounded=0;strokeColor=#4D9900;strokeWidth=2;" edge="1" parent="1">
          <mxGeometry width="50" height="50" relative="1" as="geometry">
            <mxPoint x="484" y="437" as="sourcePoint" />
            <mxPoint x="514" y="437" as="targetPoint" />
          </mxGeometry>
        </mxCell>
        <mxCell id="QPjuQyHc1zBI7uoP9U3m-81" value="RegWr" style="text;html=1;align=center;verticalAlign=middle;resizable=0;points=[];autosize=1;strokeColor=#d79b00;fillColor=#ffe6cc;" vertex="1" parent="1">
          <mxGeometry x="609" y="290" width="50" height="20" as="geometry" />
        </mxCell>
        <mxCell id="QPjuQyHc1zBI7uoP9U3m-82" value="Branch" style="text;html=1;align=center;verticalAlign=middle;resizable=0;points=[];autosize=1;strokeColor=#d79b00;fillColor=#ffe6cc;" vertex="1" parent="1">
          <mxGeometry x="609" y="380" width="50" height="20" as="geometry" />
        </mxCell>
        <mxCell id="QPjuQyHc1zBI7uoP9U3m-83" value="MemRead" style="text;html=1;align=center;verticalAlign=middle;resizable=0;points=[];autosize=1;strokeColor=#d79b00;fillColor=#ffe6cc;" vertex="1" parent="1">
          <mxGeometry x="605" y="350" width="70" height="20" as="geometry" />
        </mxCell>
        <mxCell id="QPjuQyHc1zBI7uoP9U3m-84" value="MemWrite" style="text;html=1;align=center;verticalAlign=middle;resizable=0;points=[];autosize=1;strokeColor=#d79b00;fillColor=#ffe6cc;" vertex="1" parent="1">
          <mxGeometry x="605" y="320" width="70" height="20" as="geometry" />
        </mxCell>
        <mxCell id="QPjuQyHc1zBI7uoP9U3m-85" value="MemWr" style="text;html=1;align=center;verticalAlign=middle;resizable=0;points=[];autosize=1;strokeColor=#9673a6;fillColor=#e1d5e7;" vertex="1" parent="1">
          <mxGeometry x="605" y="425" width="60" height="20" as="geometry" />
        </mxCell>
        <mxCell id="QPjuQyHc1zBI7uoP9U3m-86" value="MemtoReg" style="text;html=1;align=center;verticalAlign=middle;resizable=0;points=[];autosize=1;strokeColor=#9673a6;fillColor=#e1d5e7;" vertex="1" parent="1">
          <mxGeometry x="600" y="455" width="70" height="20" as="geometry" />
        </mxCell>
        <mxCell id="QPjuQyHc1zBI7uoP9U3m-87" value="" style="endArrow=classic;html=1;rounded=0;strokeColor=#4D9900;strokeWidth=2;" edge="1" parent="1">
          <mxGeometry width="50" height="50" relative="1" as="geometry">
            <mxPoint x="287" y="223.57999999999993" as="sourcePoint" />
            <mxPoint x="327" y="223.57999999999993" as="targetPoint" />
          </mxGeometry>
        </mxCell>
        <mxCell id="QPjuQyHc1zBI7uoP9U3m-88" value="" style="endArrow=classic;html=1;rounded=0;strokeColor=#4D9900;strokeWidth=2;" edge="1" parent="1">
          <mxGeometry width="50" height="50" relative="1" as="geometry">
            <mxPoint x="287" y="251" as="sourcePoint" />
            <mxPoint x="327" y="251" as="targetPoint" />
            <Array as="points">
              <mxPoint x="297" y="251" />
            </Array>
          </mxGeometry>
        </mxCell>
        <mxCell id="QPjuQyHc1zBI7uoP9U3m-89" value="" style="endArrow=classic;html=1;rounded=0;strokeColor=#4D9900;strokeWidth=2;" edge="1" parent="1">
          <mxGeometry width="50" height="50" relative="1" as="geometry">
            <mxPoint x="287" y="279" as="sourcePoint" />
            <mxPoint x="327" y="279" as="targetPoint" />
          </mxGeometry>
        </mxCell>
        <mxCell id="QPjuQyHc1zBI7uoP9U3m-90" value="" style="endArrow=classic;html=1;rounded=0;strokeColor=#4D9900;strokeWidth=2;" edge="1" parent="1">
          <mxGeometry width="50" height="50" relative="1" as="geometry">
            <mxPoint x="289" y="311" as="sourcePoint" />
            <mxPoint x="329" y="311" as="targetPoint" />
          </mxGeometry>
        </mxCell>
        <mxCell id="QPjuQyHc1zBI7uoP9U3m-91" value="" style="endArrow=classic;html=1;rounded=0;strokeColor=#4D9900;strokeWidth=2;" edge="1" parent="1">
          <mxGeometry width="50" height="50" relative="1" as="geometry">
            <mxPoint x="287" y="340" as="sourcePoint" />
            <mxPoint x="327" y="340" as="targetPoint" />
          </mxGeometry>
        </mxCell>
        <mxCell id="QPjuQyHc1zBI7uoP9U3m-92" value="" style="endArrow=classic;html=1;rounded=0;strokeColor=#4D9900;strokeWidth=2;" edge="1" parent="1">
          <mxGeometry width="50" height="50" relative="1" as="geometry">
            <mxPoint x="287" y="370" as="sourcePoint" />
            <mxPoint x="327" y="370" as="targetPoint" />
          </mxGeometry>
        </mxCell>
        <mxCell id="QPjuQyHc1zBI7uoP9U3m-93" value="" style="endArrow=classic;html=1;rounded=0;strokeColor=#4D9900;strokeWidth=2;" edge="1" parent="1">
          <mxGeometry width="50" height="50" relative="1" as="geometry">
            <mxPoint x="287" y="394" as="sourcePoint" />
            <mxPoint x="327" y="394" as="targetPoint" />
          </mxGeometry>
        </mxCell>
        <mxCell id="QPjuQyHc1zBI7uoP9U3m-94" value="" style="endArrow=classic;html=1;rounded=0;strokeColor=#4D9900;strokeWidth=2;" edge="1" parent="1">
          <mxGeometry width="50" height="50" relative="1" as="geometry">
            <mxPoint x="287" y="422.0000000000002" as="sourcePoint" />
            <mxPoint x="327" y="422.0000000000002" as="targetPoint" />
          </mxGeometry>
        </mxCell>
        <mxCell id="QPjuQyHc1zBI7uoP9U3m-95" value="" style="endArrow=classic;html=1;rounded=0;strokeColor=#4D9900;strokeWidth=2;exitX=1;exitY=0.784;exitDx=0;exitDy=0;exitPerimeter=0;" edge="1" parent="1">
          <mxGeometry width="50" height="50" relative="1" as="geometry">
            <mxPoint x="289" y="451.9200000000001" as="sourcePoint" />
            <mxPoint x="329" y="452" as="targetPoint" />
          </mxGeometry>
        </mxCell>
        <mxCell id="QPjuQyHc1zBI7uoP9U3m-96" value="" style="endArrow=classic;html=1;rounded=0;strokeColor=#4D9900;strokeWidth=2;" edge="1" parent="1">
          <mxGeometry width="50" height="50" relative="1" as="geometry">
            <mxPoint x="289" y="197.57999999999993" as="sourcePoint" />
            <mxPoint x="329" y="197.57999999999993" as="targetPoint" />
          </mxGeometry>
        </mxCell>
        <mxCell id="QPjuQyHc1zBI7uoP9U3m-97" value="" style="endArrow=classic;html=1;rounded=0;strokeColor=#4D9900;strokeWidth=2;" edge="1" parent="1">
          <mxGeometry width="50" height="50" relative="1" as="geometry">
            <mxPoint x="288" y="168.57999999999993" as="sourcePoint" />
            <mxPoint x="328" y="168.57999999999993" as="targetPoint" />
          </mxGeometry>
        </mxCell>
        <mxCell id="QPjuQyHc1zBI7uoP9U3m-98" value="" style="endArrow=classic;html=1;rounded=0;strokeColor=#4D9900;strokeWidth=2;" edge="1" parent="1">
          <mxGeometry width="50" height="50" relative="1" as="geometry">
            <mxPoint x="568" y="299" as="sourcePoint" />
            <mxPoint x="608" y="299" as="targetPoint" />
            <Array as="points">
              <mxPoint x="588" y="299" />
            </Array>
          </mxGeometry>
        </mxCell>
        <mxCell id="QPjuQyHc1zBI7uoP9U3m-99" value="" style="endArrow=classic;html=1;rounded=0;strokeColor=#4D9900;strokeWidth=2;" edge="1" parent="1">
          <mxGeometry width="50" height="50" relative="1" as="geometry">
            <mxPoint x="568" y="329" as="sourcePoint" />
            <mxPoint x="608" y="329" as="targetPoint" />
          </mxGeometry>
        </mxCell>
        <mxCell id="QPjuQyHc1zBI7uoP9U3m-100" value="" style="endArrow=classic;html=1;rounded=0;strokeColor=#4D9900;strokeWidth=2;" edge="1" parent="1">
          <mxGeometry width="50" height="50" relative="1" as="geometry">
            <mxPoint x="568" y="355" as="sourcePoint" />
            <mxPoint x="608" y="355" as="targetPoint" />
          </mxGeometry>
        </mxCell>
        <mxCell id="QPjuQyHc1zBI7uoP9U3m-101" value="" style="endArrow=classic;html=1;rounded=0;strokeColor=#4D9900;strokeWidth=2;" edge="1" parent="1">
          <mxGeometry width="50" height="50" relative="1" as="geometry">
            <mxPoint x="568" y="385" as="sourcePoint" />
            <mxPoint x="608" y="385" as="targetPoint" />
          </mxGeometry>
        </mxCell>
        <mxCell id="QPjuQyHc1zBI7uoP9U3m-102" value="" style="endArrow=classic;html=1;rounded=0;strokeColor=#4D9900;strokeWidth=2;" edge="1" parent="1">
          <mxGeometry width="50" height="50" relative="1" as="geometry">
            <mxPoint x="568" y="415" as="sourcePoint" />
            <mxPoint x="608" y="415" as="targetPoint" />
          </mxGeometry>
        </mxCell>
        <mxCell id="QPjuQyHc1zBI7uoP9U3m-108" value="Jump" style="text;html=1;align=center;verticalAlign=middle;resizable=0;points=[];autosize=1;strokeColor=#d79b00;fillColor=#ffe6cc;" vertex="1" parent="1">
          <mxGeometry x="609" y="404.99999999999994" width="40" height="20" as="geometry" />
        </mxCell>
        <mxCell id="QPjuQyHc1zBI7uoP9U3m-109" value="" style="endArrow=classic;html=1;rounded=0;strokeColor=#4D9900;strokeWidth=2;entryX=0.033;entryY=0.45;entryDx=0;entryDy=0;entryPerimeter=0;exitX=0.98;exitY=0.622;exitDx=0;exitDy=0;exitPerimeter=0;" edge="1" parent="1" source="QPjuQyHc1zBI7uoP9U3m-3" target="QPjuQyHc1zBI7uoP9U3m-85">
          <mxGeometry width="50" height="50" relative="1" as="geometry">
            <mxPoint x="580" y="434" as="sourcePoint" />
            <mxPoint x="618" y="425" as="targetPoint" />
          </mxGeometry>
        </mxCell>
        <mxCell id="QPjuQyHc1zBI7uoP9U3m-110" value="" style="endArrow=classic;html=1;rounded=0;strokeColor=#4D9900;strokeWidth=2;exitX=1.06;exitY=0.683;exitDx=0;exitDy=0;exitPerimeter=0;" edge="1" parent="1" source="QPjuQyHc1zBI7uoP9U3m-3">
          <mxGeometry width="50" height="50" relative="1" as="geometry">
            <mxPoint x="580" y="465" as="sourcePoint" />
            <mxPoint x="600" y="465" as="targetPoint" />
          </mxGeometry>
        </mxCell>
        <mxCell id="QPjuQyHc1zBI7uoP9U3m-112" value="" style="endArrow=classic;html=1;rounded=0;strokeColor=#4D9900;strokeWidth=2;exitX=1.014;exitY=0.5;exitDx=0;exitDy=0;exitPerimeter=0;" edge="1" parent="1" source="QPjuQyHc1zBI7uoP9U3m-86">
          <mxGeometry width="50" height="50" relative="1" as="geometry">
            <mxPoint x="583" y="446" as="sourcePoint" />
            <mxPoint x="710" y="465" as="targetPoint" />
          </mxGeometry>
        </mxCell>
        <mxCell id="QPjuQyHc1zBI7uoP9U3m-113" value="" style="endArrow=classic;html=1;rounded=0;strokeColor=#4D9900;strokeWidth=2;exitX=1.017;exitY=0.5;exitDx=0;exitDy=0;exitPerimeter=0;" edge="1" parent="1" source="QPjuQyHc1zBI7uoP9U3m-85">
          <mxGeometry width="50" height="50" relative="1" as="geometry">
            <mxPoint x="680.98" y="475" as="sourcePoint" />
            <mxPoint x="710" y="435" as="targetPoint" />
          </mxGeometry>
        </mxCell>
        <mxCell id="QPjuQyHc1zBI7uoP9U3m-114" value="MemWr" style="text;html=1;align=center;verticalAlign=middle;resizable=0;points=[];autosize=1;strokeColor=#9673a6;fillColor=#e1d5e7;" vertex="1" parent="1">
          <mxGeometry x="805" y="420" width="60" height="20" as="geometry" />
        </mxCell>
        <mxCell id="QPjuQyHc1zBI7uoP9U3m-115" value="MemtoReg" style="text;html=1;align=center;verticalAlign=middle;resizable=0;points=[];autosize=1;strokeColor=#9673a6;fillColor=#e1d5e7;" vertex="1" parent="1">
          <mxGeometry x="800" y="450" width="70" height="20" as="geometry" />
        </mxCell>
        <mxCell id="QPjuQyHc1zBI7uoP9U3m-116" value="" style="endArrow=classic;html=1;rounded=0;strokeColor=#4D9900;strokeWidth=2;exitX=1.014;exitY=0.5;exitDx=0;exitDy=0;exitPerimeter=0;entryX=-0.04;entryY=0.783;entryDx=0;entryDy=0;entryPerimeter=0;" edge="1" parent="1">
          <mxGeometry width="50" height="50" relative="1" as="geometry">
            <mxPoint x="766.96" y="461" as="sourcePoint" />
            <mxPoint x="805.98" y="461.20000000000005" as="targetPoint" />
          </mxGeometry>
        </mxCell>
        <mxCell id="QPjuQyHc1zBI7uoP9U3m-117" value="" style="endArrow=classic;html=1;rounded=0;strokeColor=#4D9900;strokeWidth=2;exitX=1.017;exitY=0.5;exitDx=0;exitDy=0;exitPerimeter=0;entryX=-0.06;entryY=0.705;entryDx=0;entryDy=0;entryPerimeter=0;" edge="1" parent="1">
          <mxGeometry width="50" height="50" relative="1" as="geometry">
            <mxPoint x="762" y="431" as="sourcePoint" />
            <mxPoint x="804.98" y="430" as="targetPoint" />
          </mxGeometry>
        </mxCell>
        <mxCell id="QPjuQyHc1zBI7uoP9U3m-119" value="" style="endArrow=classic;html=1;rounded=0;strokeColor=#4D9900;strokeWidth=2;entryX=-0.06;entryY=0.726;entryDx=0;entryDy=0;entryPerimeter=0;" edge="1" parent="1" target="QPjuQyHc1zBI7uoP9U3m-2">
          <mxGeometry width="50" height="50" relative="1" as="geometry">
            <mxPoint x="280" y="480" as="sourcePoint" />
            <mxPoint x="337" y="468" as="targetPoint" />
          </mxGeometry>
        </mxCell>
        <mxCell id="QPjuQyHc1zBI7uoP9U3m-120" value="" style="endArrow=classic;html=1;rounded=0;strokeColor=#4D9900;strokeWidth=2;exitX=1;exitY=0.733;exitDx=0;exitDy=0;exitPerimeter=0;" edge="1" parent="1" source="QPjuQyHc1zBI7uoP9U3m-2">
          <mxGeometry width="50" height="50" relative="1" as="geometry">
            <mxPoint x="290" y="490" as="sourcePoint" />
            <mxPoint x="420" y="488" as="targetPoint" />
          </mxGeometry>
        </mxCell>
        <mxCell id="QPjuQyHc1zBI7uoP9U3m-121" value="Halt" style="text;html=1;align=center;verticalAlign=middle;resizable=0;points=[];autosize=1;strokeColor=none;fillColor=none;fontColor=#000000;" vertex="1" parent="1">
          <mxGeometry x="430" y="480" width="40" height="20" as="geometry" />
        </mxCell>
        <mxCell id="QPjuQyHc1zBI7uoP9U3m-123" value="" style="endArrow=classic;html=1;rounded=0;strokeColor=#4D9900;strokeWidth=2;" edge="1" parent="1">
          <mxGeometry width="50" height="50" relative="1" as="geometry">
            <mxPoint x="480" y="490" as="sourcePoint" />
            <mxPoint x="527" y="490" as="targetPoint" />
          </mxGeometry>
        </mxCell>
        <mxCell id="QPjuQyHc1zBI7uoP9U3m-126" value="" style="endArrow=classic;html=1;rounded=0;strokeColor=#4D9900;strokeWidth=2;exitX=1.06;exitY=0.843;exitDx=0;exitDy=0;exitPerimeter=0;" edge="1" parent="1">
          <mxGeometry width="50" height="50" relative="1" as="geometry">
            <mxPoint x="568" y="487.20000000000005" as="sourcePoint" />
            <mxPoint x="605" y="488" as="targetPoint" />
          </mxGeometry>
        </mxCell>
        <mxCell id="QPjuQyHc1zBI7uoP9U3m-127" value="Halt" style="text;html=1;align=center;verticalAlign=middle;resizable=0;points=[];autosize=1;strokeColor=none;fillColor=none;fontColor=#000000;" vertex="1" parent="1">
          <mxGeometry x="615" y="480" width="40" height="20" as="geometry" />
        </mxCell>
        <mxCell id="QPjuQyHc1zBI7uoP9U3m-128" value="" style="endArrow=classic;html=1;rounded=0;strokeColor=#4D9900;strokeWidth=2;" edge="1" parent="1">
          <mxGeometry width="50" height="50" relative="1" as="geometry">
            <mxPoint x="665" y="490" as="sourcePoint" />
            <mxPoint x="712" y="490" as="targetPoint" />
          </mxGeometry>
        </mxCell>
        <mxCell id="QPjuQyHc1zBI7uoP9U3m-129" value="" style="endArrow=classic;html=1;rounded=0;strokeColor=#4D9900;strokeWidth=2;exitX=1.06;exitY=0.843;exitDx=0;exitDy=0;exitPerimeter=0;" edge="1" parent="1">
          <mxGeometry width="50" height="50" relative="1" as="geometry">
            <mxPoint x="763" y="487.20000000000005" as="sourcePoint" />
            <mxPoint x="800" y="488" as="targetPoint" />
          </mxGeometry>
        </mxCell>
        <mxCell id="QPjuQyHc1zBI7uoP9U3m-130" value="Halt" style="text;html=1;align=center;verticalAlign=middle;resizable=0;points=[];autosize=1;strokeColor=none;fillColor=none;fontColor=#000000;" vertex="1" parent="1">
          <mxGeometry x="810" y="480" width="40" height="20" as="geometry" />
        </mxCell>
        <mxCell id="QPjuQyHc1zBI7uoP9U3m-133" value="&lt;b&gt;Cache&lt;/b&gt;" style="rounded=0;whiteSpace=wrap;html=1;strokeWidth=4;" vertex="1" parent="1">
          <mxGeometry x="-250" y="750" width="1230" height="30" as="geometry" />
        </mxCell>
      </root>
    </mxGraphModel>
  </diagram>
</mxfile>
